<svg id="Layer_1" data-name="Layer 1" xmlns="http://www.w3.org/2000/svg" viewBox="0 0 96 96"><defs><style>.cls-1{fill:#262728;}</style></defs><path class="cls-1" d="M84,24V21.65A13.65,13.65,0,0,0,70.35,8H25.65A13.65,13.65,0,0,0,12,21.65V24H8V40h4V80a8,8,0,0,0,8,8h4a8,8,0,0,0,8-8V76H64v4a8,8,0,0,0,8,8h4a8,8,0,0,0,8-8V40h4V24H84ZM26,71.94a6,6,0,1,1,6-6A6,6,0,0,1,26,71.94ZM48,54.81c-14.72,0-28-6-28-8.9V24c0-3.87.93-8,5.14-8H71.79C76,16,76,20.13,76,24V45.92C76,48.82,62.71,54.81,48,54.81ZM76,66a6,6,0,1,1-6-6A6,6,0,0,1,76,66Z"/></svg>