<?xml version="1.0" encoding="utf-8"?>
<!-- Generator: Adobe Illustrator 22.0.0, SVG Export Plug-In . SVG Version: 6.00 Build 0)  -->
<svg version="1.1" id="Layer_1" xmlns="http://www.w3.org/2000/svg" xmlns:xlink="http://www.w3.org/1999/xlink" x="0px" y="0px"
	 viewBox="0 0 58 96" style="enable-background:new 0 0 58 96;" xml:space="preserve">
<style type="text/css">
	.st0{fill:#262728;}
</style>
<title>assets_02</title>
<g>
	<path class="st0" d="M25.8,22.5c4,0,7.3-3.3,7.3-7.3S29.8,8,25.8,8s-7.3,3.3-7.3,7.3S21.8,22.5,25.8,22.5z"/>
	<path class="st0" d="M52.8,45l-12.7-6.7l-7.5-10.7c-0.6-0.9-1.6-1.4-2.6-1.5c0,0-7.8,0-7.8,0c-0.9-0.1-1.8,0.2-2.5,0.9L14,31
		l-5,6.1v8.5v7c0,1.6,1,2.7,3.6,2.7c1.8,0,1.8-1.2,1.8-2.8v-13l3.6-4.5v16.6l9.6,16.3L37,86.3c0.8,1.5,2.7,2.1,4.4,1.4l1.5-0.6
		c1.6-0.7,2.3-2.5,1.6-4c0,0-13.3-26.7-13.6-26.9V36.8l4.5,5.9l14.2,7.5c1.6,0.8,3.6,0.3,4.5-1.1C54.9,47.7,54.4,45.8,52.8,45z
		 M18.7,35.5L18.7,35.5L18.7,35.5L18.7,35.5L18.7,35.5z"/>
	<path class="st0" d="M18.2,59.6l-4.3,11.2L4.3,81.5c-1.2,1.3-1,3.2,0.4,4.3l1.3,1c0.7,0.5,1.6,0.8,2.4,0.7c0.8-0.1,1.6-0.4,2.2-1.1
		l10.5-11.7l2.5-6.4L18.2,59.6z"/>
</g>
</svg>
